PathFileType	4	(X/Y/Z)	s02c0101.trc
DataRate	CameraRate	NumFrames	NumMarkers	Units	OrigDataRate	OrigDataStartFrame	OrigNumFrames
200	200	4	51	mm	200	250	2000
Frame#	Time	racr			lacr			c7			jug			rlel			rdr			llel			ldr			s2			lic			ric			lasi			rasi			rpsi			lpsi			rgt			lgt			rth1			rth2			rth3			rth4			rlfc			rmfc			rsh1			rsh2			rsh3			rsh4			rlmal			rmmal			rtoe			rmt5			rmt1			lth1			lth2			lth4			lth3			llfc			lmfc			lsh1			lsh2			lsh3			lsh4			llmal			lmmal			lcal			ltoe			lmt1			lmt5			SBIKE			LBIKE			RBIKE			
		X1	Y1	Z1	X2	Y2	Z2	X3	Y3	Z3	X4	Y4	Z4	X5	Y5	Z5	X6	Y6	Z6	X7	Y7	Z7	X8	Y8	Z8	X9	Y9	Z9	X10	Y10	Z10	X11	Y11	Z11	X12	Y12	Z12	X13	Y13	Z13	X14	Y14	Z14	X15	Y15	Z15	X16	Y16	Z16	X17	Y17	Z17	X18	Y18	Z18	X19	Y19	Z19	X20	Y20	Z20	X21	Y21	Z21	X22	Y22	Z22	X23	Y23	Z23	X24	Y24	Z24	X25	Y25	Z25	X26	Y26	Z26	X27	Y27	Z27	X28	Y28	Z28	X29	Y29	Z29	X30	Y30	Z30	X31	Y31	Z31	X32	Y32	Z32	X33	Y33	Z33	X34	Y34	Z34	X35	Y35	Z35	X36	Y36	Z36	X37	Y37	Z37	X38	Y38	Z38	X39	Y39	Z39	X40	Y40	Z40	X41	Y41	Z41	X42	Y42	Z42	X43	Y43	Z43	X44	Y44	Z44	X45	Y45	Z45	X46	Y46	Z46	X47	Y47	Z47	X48	Y48	Z48	X49	Y49	Z49	X50	Y50	Z50	X51	Y51	Z51	
250	1.2500	519.681409	1301.922190	-132.586757	546.959868	1288.287256	-454.162544	522.849331	1322.467370	-301.519511	476.730974	1191.064446	-304.286840	557.345967	1024.389400	-86.402934	723.005674	871.001711	-131.308655	559.545712	1019.090687	-561.239721	693.967675	834.664671	-506.501056	5.891396	1124.055724	-326.743346	145.851219	1122.712835	-469.112053	140.917958	1130.752646	-186.994553	184.816218	1086.193222	-446.723140	193.087429	1100.599963	-211.473411	32.588415	1169.417932	-286.023171	29.067013	1167.184025	-373.362940	117.597933	1050.984119	-152.275723	89.116490	1032.754887	-506.393648	200.416798	1001.344855	-142.327778	279.082887	961.638573	-146.187241	329.437854	896.057188	-123.356063	299.255379	983.299171	-170.421942	414.466301	778.309376	-158.023164	404.612074	758.056468	-266.888306	411.749163	665.620221	-138.666084	416.160758	577.753618	-155.518681	380.019339	499.557543	-149.734139	425.781292	578.361112	-194.217063	340.009750	385.775982	-154.244432	339.250026	400.641808	-236.008568	557.561425	357.035010	-192.375140	452.629173	328.225021	-129.794186	474.620614	347.453830	-239.163927	206.808572	951.710828	-511.877704	280.898168	906.556552	-507.816377	303.641949	928.363732	-489.107324	323.277056	828.289271	-512.695987	378.309859	744.463294	-493.287007	372.294975	712.436215	-388.843807	317.666173	657.568913	-511.952607	269.517736	587.865397	-493.868784	190.290185	545.046334	-498.915497	283.992074	577.029680	-456.967667	96.801097	478.472196	-490.869509	114.216132	469.767048	-408.444890	16.056191	471.527131	-444.953964	232.933966	282.646126	-437.836198	169.790190	333.230530	-393.373416	138.047023	327.401096	-500.400215	-164.178438	858.878187	-312.934122	32.577653	83.093680	-515.229981	32.840954	82.592083	-115.010589	
251	1.2550	519.834304	1301.829660	-132.685190	546.816457	1288.193369	-454.443316	522.914468	1322.381731	-301.676224	476.786869	1190.982864	-304.439653	557.246836	1024.247053	-86.667044	723.040173	871.014655	-131.406398	559.507262	1018.972192	-561.423494	693.979883	834.650414	-506.514033	5.604927	1124.039765	-327.411435	145.668671	1122.876694	-469.041086	141.067280	1130.611920	-186.942497	184.697672	1086.497787	-446.657504	193.225016	1100.387072	-211.424281	32.685984	1169.380532	-285.766970	29.026000	1167.259748	-373.111673	117.695552	1050.662454	-152.326206	89.067134	1033.136240	-506.458505	200.294494	1000.571461	-142.256295	278.744665	960.384339	-145.985252	328.690753	894.540020	-123.128844	299.112730	981.940265	-170.227680	412.829339	776.066636	-158.040054	403.126237	755.972227	-266.430718	410.614185	663.733173	-138.365926	415.330934	575.720613	-155.606804	379.753418	497.523960	-149.555628	425.008077	576.575376	-193.967026	340.295853	383.457101	-154.224273	339.490840	398.477703	-235.903642	557.838852	353.747866	-192.441266	452.773790	325.423442	-129.790726	474.863166	344.630489	-239.156732	207.028355	952.660052	-512.049197	281.390871	907.893432	-508.075192	303.998466	929.732315	-489.305267	324.121928	829.846886	-513.106254	379.306574	746.063896	-493.342312	373.474233	713.629190	-389.264490	318.742503	659.416451	-512.337536	270.318339	589.957749	-494.212244	190.920528	547.510500	-499.129589	284.744603	579.048136	-457.202338	97.269138	481.308748	-490.967342	114.830625	472.353747	-408.752650	16.504366	474.536488	-445.033429	232.966252	285.223232	-437.878785	169.957450	336.101957	-393.418861	138.102529	330.236123	-500.481469	-164.120257	858.902770	-312.919613	32.573156	83.077879	-515.237208	32.826198	82.588011	-115.011407	
252	1.2600	519.994082	1301.726424	-132.811562	546.677571	1288.137839	-454.736806	523.017962	1322.273846	-301.869567	476.858151	1190.903289	-304.568787	557.079593	1024.081515	-86.963665	723.056457	871.044046	-131.500447	559.477626	1018.881991	-561.545360	693.897801	834.668309	-506.241996	5.658453	1124.043956	-327.209126	145.493860	1123.008609	-468.981275	141.194908	1130.438433	-186.929521	184.597288	1086.791774	-446.553503	193.330057	1100.173573	-211.342068	32.838716	1169.302440	-285.598659	29.000568	1167.287413	-372.904476	117.803863	1050.301077	-152.381924	88.983828	1033.547635	-506.505356	200.255346	999.822859	-142.093077	278.407388	959.043734	-145.759601	327.858361	892.858814	-122.939239	298.956851	980.539220	-169.872890	411.402122	774.143508	-157.716343	401.650513	754.037549	-265.748309	409.297081	661.778651	-138.094379	414.606509	573.843582	-155.314009	379.334482	495.462396	-149.343755	424.243656	574.794771	-193.683490	340.590770	381.171358	-154.171923	341.035206	394.095575	-239.759537	558.093430	350.446830	-192.463296	452.877996	322.619248	-129.761345	475.036046	341.802307	-239.172479	207.255181	953.556187	-512.202719	281.879847	909.226840	-508.341087	304.334845	931.174504	-489.519870	325.083841	831.457468	-513.526237	380.629009	747.857663	-493.858244	374.115736	714.018063	-389.417822	319.868727	661.451716	-512.806696	271.226132	592.128546	-494.611238	191.592149	550.065875	-499.324201	285.686913	581.090973	-457.613546	97.693731	484.209890	-491.095958	115.315802	475.348225	-408.850810	16.964019	477.704760	-445.115709	233.046719	287.970479	-437.891924	170.177265	338.887299	-393.479991	138.269784	333.101824	-500.476239	-164.148516	858.973452	-312.788002	32.572101	83.073648	-515.250168	32.828229	82.593250	-115.029059	
253	1.2650	520.175472	1301.602687	-132.937173	546.521515	1288.124088	-455.059015	523.089483	1322.185623	-302.061906	476.871892	1190.821091	-304.689557	556.942023	1023.936448	-87.166758	723.058165	871.055417	-131.579975	559.464601	1018.784670	-561.606836	693.929350	834.654327	-506.242672	6.064359	1124.029291	-326.063516	145.313726	1123.109132	-468.891333	141.328602	1130.204876	-186.852428	184.484167	1087.115439	-446.463980	193.457206	1099.908113	-211.205072	32.967322	1169.169070	-285.411067	28.942688	1167.287863	-372.680082	117.871525	1049.862650	-152.424515	88.931210	1033.921413	-506.538325	200.141005	998.934911	-141.946607	278.057143	957.778590	-145.531051	327.068798	891.116452	-122.741326	298.794171	979.077425	-169.553507	409.893720	772.184973	-157.475639	400.286673	752.016149	-265.286075	408.028035	659.882289	-137.774632	413.700262	571.941064	-155.066787	378.742482	493.428126	-149.085347	423.398781	573.088646	-193.160095	340.861473	378.880246	-154.111100	339.983376	393.877699	-235.657440	558.318861	347.047775	-192.468351	452.974672	319.749269	-129.816553	475.199583	338.885339	-239.198039	207.513628	954.448284	-512.357571	282.408430	910.544693	-508.630612	304.738902	932.666058	-489.768976	326.039413	833.030349	-513.951863	382.070836	749.637180	-494.320511	374.418009	714.313094	-389.681862	321.053692	663.433125	-513.180472	272.101699	594.300597	-494.874649	192.319687	552.532417	-499.555232	286.594314	583.213610	-457.971953	98.203732	487.127021	-491.200394	115.830470	478.223440	-409.006403	17.434778	480.779062	-445.084102	233.165742	290.637160	-437.937901	170.465864	341.856990	-393.562691	138.453387	335.902893	-500.511331	-164.147578	858.886012	-313.014457	32.570555	83.069701	-515.247378	32.832976	82.606756	-115.029829	
